<?xml version="1.0" encoding="UTF-8"?>
<svg id="Layer_1" data-name="Layer 1" xmlns="http://www.w3.org/2000/svg" version="1.1" viewBox="0 0 911.6 114.2">
  <defs>
    <style>
      .cls-1 {
        fill-rule: evenodd;
        stroke: #000;
        stroke-miterlimit: 10;
        stroke-width: .3px;
      }

      .cls-1, .cls-2 {
        fill: #000;
      }

      .cls-2, .cls-3 {
        stroke-width: 0px;
      }

      .cls-3 {
        fill: #fff;
      }
    </style>
  </defs>
  <rect class="cls-3" width="911.6" height="114.2" rx="24" ry="24"/>
  <g id="svgGroup">
    <path class="cls-1" d="M553.3,93.2h-7.2v-3.6h1.2v2.4h4.8v-1.8h-3v-4.2h3v-1.8h-4.8v3h-3v3h-4.2v-6h-1.8v3h-4.2v-6h-1.8v3h-4.2v-7.2h6v-1.8h-6v-16.2h3v-4.8h-6v-4.2h3v-1.8h-3v-3h-1.8v9h-10.2v-12h-1.8v12h-6v1.8h3v3h3v3h1.8v-6h4.2v3h1.8v-2.4h1.2v3.6h-4.2v-3h-1.8v6h-4.2v-3h-3v-3h-3v-4.2h6v-12h4.2v12h7.8v-9h4.2v3h3v4.2h-3v1.8h6v7.2h-3v13.8h6v4.2h-6v4.8h1.8v-3h4.2v6h1.8v-3h4.2v6h1.8v-3h3v-3h7.2v4.2h-3v1.8h3v4.2ZM832.6,93.2h-7.2v-3.6h1.2v2.4h4.8v-1.8h-3v-4.2h3v-1.8h-4.8v3h-3v3h-4.2v-6h-1.8v3h-4.2v-6h-1.8v3h-4.2v-7.2h6v-1.8h-6v-16.2h3v-4.8h-6v-4.2h3v-1.8h-3v-3h-1.8v9h-10.2v-12h-1.8v12h-6v1.8h3v3h3v3h1.8v-6h4.2v3h1.8v-2.4h1.2v3.6h-4.2v-3h-1.8v6h-4.2v-3h-3v-3h-3v-4.2h6v-12h4.2v12h7.8v-9h4.2v3h3v4.2h-3v1.8h6v7.2h-3v13.8h6v4.2h-6v4.8h1.8v-3h4.2v6h1.8v-3h4.2v6h1.8v-3h3v-3h7.2v4.2h-3v1.8h3v4.2ZM637.5,57.2h-3.6v-1.2h2.4v-3h6v-1.8h-9v-3h-9v-7.2h4.2v3h7.8v-4.8h-1.8v3h-4.2v-7.2h15v-3h3v-1.8h-6v-7.2h4.2v3h1.8v-3h4.2v13.2h-3v1.8h3v4.2h-7.2v-3h-4.8v1.8h3v3h3v4.2h-9.6v-1.2h8.4v-1.8h-3v-3h-3v-4.2h7.2v3h4.8v-1.8h-3v-4.2h3v-10.8h-1.8v3h-4.2v-3h-1.8v4.8h6v4.2h-3v3h-15v4.8h1.8v-3h4.2v7.2h-10.2v-3h-1.8v4.8h9v3h9v4.2h-6v3h0ZM377.3,66.2h-4.2v-7.2h3v-1.8h-3v-12h-3v-7.2h6v-3h6v-1.8h-3v-4.2h10.2v3h7.8v-3h3v-3h9v-1.8h-19.8v3h-6.6v-1.2h5.4v-3h22.2v4.2h-9v3h-3v3h-10.2v-3h-7.8v1.8h3v4.2h-6v3h-6v4.8h3v12h3v4.2h-3v4.8h1.8v-3h9v-10.8h-1.8v3h-3v4.8h1.8v-2.4h1.2v3.6h-4.2v-7.2h3v-3h4.2v13.2h-9v3ZM685.1,78.2h-4.2v-13.2h10.2v12h7.8v-1.8h-6v-4.2h3v-1.8h-3v-7.2h3v-4.8h-6v-13.2h7.2v4.2h-3v4.8h1.8v-3h4.2v16.2h-3.6v-1.2h2.4v-13.8h-1.8v3h-4.2v-7.2h3v-1.8h-4.8v10.8h6v7.2h-3v4.8h3v4.2h-3v1.8h6v4.2h-10.2v-12h-7.8v10.8h1.8v-6h3v-1.8h-2.4v-1.2h3.6v4.2h-3v6ZM640.5,84.2h-4.2v-9h-6v-10.2h3v-6h7.2v4.2h-3.6v-1.2h2.4v-1.8h-4.8v6h-3v7.8h6v9h1.8v-10.8h-6v-4.2h3v-3h6v-3h9v-3h6v-3h6v-3h3v-3h3v-4.8h-3v-3h-1.8v2.4h-1.2v-3.6h4.2v3h3v7.2h-3v3h-3v3h-6v3h-6v3h-9v3h-6v3h-3v1.8h6v13.2h0ZM437.4,82.2h-10.2v-4.2h3v-1.8h-3v-10.2h3v-3h4.2v3h1.8v-4.8h-3v-4.2h3v-6h13.2v7.2h-4.2v-3.6h1.2v2.4h1.8v-4.8h-10.8v6h-3v1.8h3v7.2h-4.2v-3h-1.8v3h-3v7.8h3v4.2h-3v1.8h7.8v-1.8h-3v-10.2h7.2v6h6v4.2h-3v3h-4.2v-3.6h1.2v2.4h1.8v-3h3v-1.8h-6v-6h-4.8v7.8h3s0,4.2,0,4.2ZM401.3,72.2h-7.2v-4.2h3v-3h3v-2.4h1.2v3.6h-3v3h-3v1.8h4.8v-3h3v-3h9v-10.8h-1.8v3h-7.2v-3h-1.8v3h-4.2v-3h-1.8v4.8h3v4.2h-3v3h-4.2v-9h-3v-4.2h3.6v1.2h-2.4v1.8h3v9h1.8v-3h3v-1.8h-3v-7.2h4.2v3h1.8v-3h4.2v3h4.8v-3h4.2v13.2h-9v3h-3v3ZM371.3,60.2h-7.2v-13.2h3v-4.8h-3v-4.2h3v-7.8h-3v-4.2h7.2v9h1.8v-3h3v-6h3v-3h6.6v1.2h-5.4v3h-3v6h-3v3h-4.2v-9h-4.8v1.8h3v10.2h-3v1.8h3v7.2h-3v10.8h4.8v-1.8h-3v-4.2h3v-5.4h1.2v6.6h-3v1.8h3v4.2ZM535.3,72.2h-4.2v-3.6h1.2v2.4h1.8v-4.8h-3v-4.2h15v-9h3v-1.8h-9v-9h-10.8v1.8h9v4.2h-6.6v-1.2h5.4v-1.8h-9v-4.2h13.2v9h9v4.2h-3v9h-15v1.8h3s0,7.2,0,7.2ZM814.6,72.2h-4.2v-3.6h1.2v2.4h1.8v-4.8h-3v-4.2h15v-9h3v-1.8h-9v-9h-10.8v1.8h9v4.2h-6.6v-1.2h5.4v-1.8h-9v-4.2h13.2v9h9v4.2h-3v9h-15v1.8h3v7.2h0ZM380.3,51.2h-4.2v-3.6h1.2v2.4h1.8v-12h4.2v6h16.8v-3h3v-1.8h-3v-3h-4.8v3h-4.2v-3h-1.8v6h-4.2v-9.6h1.2v8.4h1.8v-6h4.2v3h1.8v-3h7.2v3h3v4.2h-3v3h-19.2v-6h-1.8v12ZM754.2,91.2h-3.6v-4.2h9v-4.8h-6v-3h-3v-3h-6v-7.2h4.2v3h1.8v-4.8h-7.8v10.8h3v3h1.8v-2.4h1.2v3.6h-4.2v-3h-3v-13.2h10.2v7.2h-4.2v-3h-1.8v4.8h6v3h3v3h6v7.2h-9v1.8h2.4v1.2h0ZM685.1,36.2h-4.2v-3h-3v-4.2h3v-1.8h-3v-4.2h6v-1.8h-5.4v-1.2h6.6v4.2h-6v1.8h3v4.2h-3v1.8h3v3h1.8v-9h3v-3h4.2v6h7.8v-1.8h-6v-6h-2.4v-1.2h3.6v6h6v4.2h-10.2v-6h-1.8v3h-3v9h0ZM568.1,73.2h-4.2v-6h-3v-4.2h16.2v3h3v6h1.8v-7.8h-3v-6h-1.8v2.4h-1.2v-3.6h4.2v6h3v10.2h-4.2v-6h-3v-3h-13.8v1.8h3v6h1.8v-3h6v-1.8h-5.4v-1.2h6.6v4.2h-6v3h0ZM861.6,94.2h-7.2v-4.2h3v-1.8h-6v-3h-4.8v3h-4.2v-6h-1.8v2.4h-1.2v-3.6h4.2v6h1.8v-3h7.2v3h6v4.2h-3v1.8h4.8v-9h6v-1.8h-7.8v3h-4.2v-6.6h1.2v5.4h1.8v-3h10.2v4.2h-6v9ZM727.2,85.2h-3.6v-16.2h6v-4.8h-1.8v3h-6v3h-7.2v-3h-4.8v7.8h4.8v-1.8h-2.4v-1.2h3.6v4.2h-7.2v-10.2h7.2v3h4.8v-3h6v-3h4.2v7.2h-6v13.8h2.4v1.2ZM473.4,94.2h-10.2v-4.2h6v-3h3v-1.8h-3v-3h-4.8v1.8h3v3.6h-1.2v-2.4h-3v-4.2h7.2v3h3v4.2h-3v3h-6v1.8h7.8v-3h3v-3h4.2v3h3v4.2h-6.6v-1.2h5.4v-1.8h-3v-3h-1.8v3h-3v3ZM601.1,94.2h-19.2v-4.2h6v-1.8h-20.4v-1.2h21.6v4.2h-6v1.8h16.8v-4.8h-1.8v3h-4.2v-3h-1.8v2.4h-1.2v-3.6h4.2v3h1.8v-3h4.2v7.2h0ZM858,73.2h-3.6v-4.2h3v-3h4.2v6h1.8v-12h9v-3h3v-3h3v-3h4.2v3h5.4v1.2h-6.6v-3h-1.8v3h-3v3h-3v3h-9v12h-4.2v-6h-1.8v3h-3v1.8h2.4v1.2h0ZM607.1,55.2h-4.2v-3h-3v-3h-15v-4.2h3v-1.8h-4.8v3h-4.2v-3h-1.8v3h-6.6v-1.2h5.4v-3h4.2v3h1.8v-3h7.2v4.2h-3v1.8h15v3h3v3h1.8v-3h6.6v1.2h-5.4v3ZM652.5,93.2h-10.2v-3h-2.4v-1.2h3.6v3h7.8v-1.8h-3v-4.2h7.2v3h1.8v-6h7.2v3h3v3h3v4.2h-7.2v-3.6h1.2v2.4h4.8v-1.8h-3v-3h-3v-3h-4.8v6h-4.2v-3h-4.8v1.8h3v4.2h0ZM467.4,67.2h-7.2v-7.2h4.2v3.6h-1.2v-2.4h-1.8v4.8h4.8v-10.8h-3v-4.2h3v-6h4.2v6h3v3h3v4.2h-3v2.4h-1.2v-3.6h3v-1.8h-3v-3h-3v-6h-1.8v6h-3v1.8h3v13.2ZM682.1,93.2h-4.2v-13.2h4.2v3.6h-1.2v-2.4h-1.8v10.8h1.8v-6h3v-3h10.2v4.2h-3v1.8h3v4.2h-7.2v-3h-1.8v2.4h-1.2v-3.6h4.2v3h4.8v-1.8h-3v-4.2h3v-1.8h-7.8v3h-3v6ZM498.7,72.2h-3.6v-4.2h3v-4.8h-3v-4.2h3v-3h3v-9h6v-4.8h-1.8v3h-7.2v-4.2h3.6v1.2h-2.4v1.8h4.8v-3h4.2v7.2h-6v9h-3v3h-3v1.8h3v7.2h-3v1.8h2.4v1.2ZM778,72.2h-3.6v-4.2h3v-4.8h-3v-4.2h3v-3h3v-9h6v-4.8h-1.8v3h-7.2v-4.2h3.6v1.2h-2.4v1.8h4.8v-3h4.2v7.2h-6v9h-3v3h-3v1.8h3v7.2h-3v1.8h2.4v1.2ZM745.8,61.2h-4.2v-12h-1.8v3h-3v3h-4.2v-7.2h3v-3h3v-1.8h-7.8v1.8h2.4v1.2h-3.6v-4.2h10.2v4.2h-3v3h-3v4.8h1.8v-3h3v-3h4.2v12h1.8v-2.4h1.2v3.6h0ZM589.1,85.2h-10.2v-3h-3v-6h-1.8v3h-4.2v-7.2h3.6v1.2h-2.4v4.8h1.8v-3h4.2v6h3v3h7.8v-1.8h-3v-6h-4.8v1.8h3v3.6h-1.2v-2.4h-3v-4.2h7.2v6h3v4.2h0ZM876.6,52.2h-4.2v-9h-4.8v3h-4.2v-3h-1.8v3h-7.2v-4.2h3.6v1.2h-2.4v1.8h4.8v-3h4.2v3h1.8v-3h7.2v9h1.8v-3h13.2v4.2h-3.6v-1.2h2.4v-1.8h-10.8v3ZM479.4,79.2h-7.2v-3h-6v-6h-4.8v1.8h2.4v1.2h-3.6v-4.2h7.2v6h6v3h4.8v-6h3v-1.8h-7.8v1.8h3v3.6h-1.2v-2.4h-3v-4.2h10.2v4.2h-3v6ZM440.4,94.2h-4.2v-10.2h9v-3h7.2v4.2h-3.6v-1.2h2.4v-1.8h-4.8v3h-9v7.8h1.8v-6h13.2v6h2.4v1.2h-3.6v-6h-10.8v6ZM751.2,94.2h-18.6v-3h-15v-4.2h12v-4.8h-3v-3.6h1.2v2.4h3v7.2h-12v1.8h15v3h17.4v1.2h0ZM505.3,81.2h-9.6v-1.2h8.4v-6h3v-4.8h-6v-10.2h4.2v3h3v4.2h-3.6v-1.2h2.4v-1.8h-3v-3h-1.8v7.8h6v7.2h-3v6ZM616.1,61.2h-13.2v-3h-9v-7.2h4.2v3.6h-1.2v-2.4h-1.8v4.8h9v3h10.8v-1.8h-6v-4.2h6.6v1.2h-5.4v1.8h6v4.2h0ZM784.6,81.2h-9.6v-1.2h8.4v-6h3v-4.8h-6v-10.2h4.2v3h3v4.2h-3.6v-1.2h2.4v-1.8h-3v-3h-1.8v7.8h6v7.2h-3v6h0ZM646.5,60.2h-4.2v-3h-2.4v-1.2h3.6v3h1.8v-9h6v-1.8h-3v-4.2h12v-1.8h-5.4v-1.2h6.6v4.2h-12v1.8h3v4.2h-6v9h0ZM646.5,87.2h-9.6v-1.2h8.4v-1.8h-3v-4.2h7.2v3h1.8v-3h3v-3h4.2v3h1.8v-3h3.6v1.2h-2.4v3h-4.2v-3h-1.8v3h-3v3h-4.2v-3h-4.8v1.8h3v4.2ZM685.1,63.2h-7.2v-13.2h3v-3h7.2v6.6h-1.2v-5.4h-4.8v3h-3v10.8h4.8v-3h4.2v3h1.8v-3h3.6v1.2h-2.4v3h-4.2v-3h-1.8v3h0ZM748.8,52.2h-4.2v-6h-3v-4.2h7.2v3h1.8v-2.4h1.2v3.6h-4.2v-3h-4.8v1.8h3v6h1.8v-3h4.2v3h1.8v-3h3v-1.8h-2.4v-1.2h3.6v4.2h-3v3h-4.2v-3h-1.8v3h0ZM730.8,61.2h-4.2v-3h-3v-3h-7.8v3h-4.2v-7.2h3v-2.4h1.2v3.6h-3v4.8h1.8v-3h10.2v3h3v3h1.8v-3h9v-2.4h1.2v3.6h-9v3ZM508.3,93.2h-4.2v-3h-1.8v2.4h-1.2v-3.6h4.2v3h1.8v-9h4.2v3h1.8v-7.8h-4.8v1.8h2.4v1.2h-3.6v-4.2h7.2v10.2h-4.2v-3h-1.8v9ZM787.6,93.2h-4.2v-3h-1.8v2.4h-1.2v-3.6h4.2v3h1.8v-9h4.2v3h1.8v-7.8h-4.8v1.8h2.4v1.2h-3.6v-4.2h7.2v10.2h-4.2v-3h-1.8v9h0ZM715.8,87.6h-1.2v-2.4h-3v-3h-3v-4.2h9v-6h4.2v10.2h-3v1.8h2.4v1.2h-3.6v-4.2h3v-7.8h-1.8v6h-9v1.8h3v3h3v3.6h0ZM891.6,79.2h-13.2v-6h-1.8v3h-4.2v-3h-1.8v2.4h-1.2v-3.6h4.2v3h1.8v-3h4.2v6h10.8v-8.4h1.2s0,9.6,0,9.6ZM574.1,85.2h-10.2v-6h-3v-9.6h1.2v8.4h3v6h7.8v-1.8h-6v-6h-2.4v-1.2h3.6v6h6v4.2h0ZM418.7,42.2h-3.6v-4.2h3v-10.8h-4.8v3h-9v1.8h2.4v1.2h-3.6v-4.2h9v-3h7.2v13.2h-3v1.8h2.4v1.2ZM368.3,93.2h-4.2v-3.6h1.2v2.4h1.8v-4.8h-3v-4.2h7.2v3h3v3h3v4.2h-3.6v-1.2h2.4v-1.8h-3v-3h-3v-3h-4.8v1.8h3v7.2ZM607.1,91.2h-3.6v-1.2h2.4v-1.8h-3v-3h-6v-4.2h6v-9h6.6v1.2h-5.4v9h-6v1.8h6v3h3v4.2ZM386.3,87.2h-3.6v-1.2h2.4v-1.8h-6v-6h-7.8v3h-4.2v-6.6h1.2v5.4h1.8v-3h10.2v6h6v4.2ZM377.3,75.2h-4.2v-7.2h9v-1.8h-2.4v-1.2h3.6v4.2h-9v4.8h1.8v-3h10.2v3.6h-1.2v-2.4h-7.8v3ZM553.3,81.2h-3.6v-1.2h2.4v-4.8h-3v-6h-3v-3h-4.8v3h-4.2v-3.6h1.2v2.4h1.8v-3h7.2v3h3v6h3v7.2h0ZM595.1,85.2h-4.2v-10.2h3v-3h7.2v7.2h-3.6v-1.2h2.4v-4.8h-4.8v3h-3v7.8h1.8v-5.4h1.2v6.6h0ZM832.6,81.2h-3.6v-1.2h2.4v-4.8h-3v-6h-3v-3h-4.8v3h-4.2v-3.6h1.2v2.4h1.8v-3h7.2v3h3v6h3v7.2h0ZM879.6,94.2h-4.2v-3.6h1.2v2.4h1.8v-3h3v-1.8h-3v-3h-1.8v3h-3v3h-4.2v-3.6h1.2v2.4h1.8v-3h3v-3h4.2v3h3v4.2h-3v3ZM544.3,83.6h-1.2v-3.6h3v-1.8h-9v-7.2h7.2v3h1.8v-2.4h1.2v3.6h-4.2v-3h-4.8v4.8h9v4.2h-3v2.4ZM823.6,83.6h-1.2v-3.6h3v-1.8h-9v-7.2h7.2v3h1.8v-2.4h1.2v3.6h-4.2v-3h-4.8v4.8h9v4.2h-3v2.4ZM485.4,72.6h-1.2v-5.4h-3v-3h-1.8v3h-4.2v-3h-6v-9.6h1.2v8.4h6v3h1.8v-3h4.2v3h3v6.6ZM852.6,67.2h-4.2v-3h-3v-4.2h3v-3h3v-3h4.2v7.2h-3.6v-1.2h2.4v-4.8h-1.8v3h-3v3h-3v1.8h3v3h1.8v-2.4h1.2v3.6h0ZM580.1,55.2h-7.2v-7.2h4.2v3.6h-1.2v-2.4h-1.8v4.8h4.8v-6h4.2v3h5.4v1.2h-6.6v-3h-1.8v6h0ZM485.4,60.6h-1.2v-8.4h-3v-6h-3v-4.2h7.2v6.6h-1.2v-5.4h-4.8v1.8h3v6h3v9.6ZM640.5,33.2h-4.2v-3h-6v-4.2h3v-3h4.2v3.6h-1.2v-2.4h-1.8v3h-3v1.8h6v3h1.8v-8.4h1.2s0,9.6,0,9.6ZM766.8,73.2h-10.2v-7.2h3v-3h6.6v1.2h-5.4v3h-3v4.8h7.8v-1.8h-5.4v-1.2h6.6v4.2h0ZM478.8,52.2h-3.6v-9h-10.8v6h-4.2v-3.6h1.2v2.4h1.8v-6h13.2v9h2.4v1.2ZM498.7,93.2h-3.6v-4.2h3v-1.8h-3v-4.2h7.2v3h1.8v-2.4h1.2v3.6h-4.2v-3h-4.8v1.8h3v4.2h-3v1.8h2.4v1.2ZM778,93.2h-3.6v-4.2h3v-1.8h-3v-4.2h7.2v3h1.8v-2.4h1.2v3.6h-4.2v-3h-4.8v1.8h3v4.2h-3v1.8h2.4v1.2h0ZM371.3,72.2h-7.2v-10.2h7.2v3.6h-1.2v-2.4h-4.8v7.8h4.8v-1.8h-3v-3.6h1.2v2.4h3v4.2ZM535.3,93.2h-7.2v-7.2h4.2v3.6h-1.2v-2.4h-1.8v4.8h4.8v-3h4.2v3h5.4v1.2h-6.6v-3h-1.8v3h0ZM814.6,93.2h-7.2v-7.2h4.2v3.6h-1.2v-2.4h-1.8v4.8h4.8v-3h4.2v3h5.4v1.2h-6.6v-3h-1.8v3h0ZM413.3,72.2h-7.2v-4.2h3.6v1.2h-2.4v1.8h4.8v-3h3v-14.4h1.2v15.6h-3v3ZM858.6,57.6h-1.2v-6.6h7.2v3h1.8v-3h4.2v6.6h-1.2v-5.4h-1.8v3h-4.2v-3h-4.8v5.4ZM544.3,60.2h-9.6v-1.2h8.4v-1.8h-9v-6h-2.4v-1.2h3.6v6h9v4.2h0ZM823.6,60.2h-9.6v-1.2h8.4v-1.8h-9v-6h-2.4v-1.2h3.6v6h9v4.2ZM691.1,36.2h-4.2v-6.6h1.2v5.4h1.8v-3h10.2v4.2h-6.6v-1.2h5.4v-1.8h-7.8v3h0ZM724.8,64.2h-10.2v-3h-6v-6.6h1.2v5.4h6v3h7.8v-1.8h-2.4v-1.2h3.6v4.2h0ZM461.4,91.2h-7.2v-6.6h1.2v5.4h4.8v-1.8h-3v-6h-2.4v-1.2h3.6v6h3v4.2ZM516.7,93.2h-3.6v-4.2h3v-13.8h-2.4v-1.2h3.6v16.2h-3v1.8h2.4v1.2ZM754.2,61.2h-3.6v-3h-3v-4.2h10.2v4.2h-3.6v-1.2h2.4v-1.8h-7.8v1.8h3v3h2.4v1.2h0ZM796,93.2h-3.6v-4.2h3v-13.8h-2.4v-1.2h3.6v16.2h-3v1.8h2.4v1.2ZM861.6,79.2h-3.6v-1.2h2.4v-3h6v-12h3.6v1.2h-2.4v12h-6v3ZM485.4,88.2h-4.2v-7.2h3v-1.8h-3v-4.2h3.6v1.2h-2.4v1.8h3v4.2h-3v4.8h1.8v-2.4h1.2v3.6ZM553.3,71.6h-1.2v-5.4h-3v-7.2h3v-1.8h-2.4v-1.2h3.6v4.2h-3v4.8h3v6.6h0ZM649.5,78.2h-7.2v-6.6h1.2v5.4h4.8v-1.8h-3v-4.2h3.6v1.2h-2.4v1.8h3v4.2h0ZM742.8,91.2h-4.2v-6h-4.8v1.8h2.4v1.2h-3.6v-4.2h7.2v6h1.8v-2.4h1.2v3.6h0ZM832.6,71.6h-1.2v-5.4h-3v-7.2h3v-1.8h-2.4v-1.2h3.6v4.2h-3v4.8h3v6.6h0ZM888.6,73.2h-4.2v-3h-3v-3h-3v-4.2h3.6v1.2h-2.4v1.8h3v3h3v3h1.8v-2.4h1.2v3.6h0ZM888.6,88.2h-4.2v-6h-2.4v-1.2h3.6v6h1.8v-6h4.2v3.6h-1.2v-2.4h-1.8v6h0ZM568.1,58.2h-4.2v-7.2h6v-1.8h-2.4v-1.2h3.6v4.2h-6v4.8h1.8v-2.4h1.2v3.6h0ZM843.6,66.6h-1.2v-2.4h-3v-4.2h3v-4.8h-1.8v2.4h-1.2v-3.6h4.2v7.2h-3v1.8h3v3.6ZM434.4,55.2h-7.2v-4.2h3v-1.8h-2.4v-1.2h3.6v4.2h-3v1.8h4.8v-2.4h1.2v3.6ZM461.4,84.6h-1.2v-9.6h4.2v3h5.4v1.2h-6.6v-3h-1.8v8.4ZM649.5,59.6h-1.2v-6.6h6v-6h3.6v1.2h-2.4v6h-6v5.4h0ZM745.8,87.6h-1.2v-2.4h-3v-3h-6v-4.2h3.6v1.2h-2.4v1.8h6v3h3v3.6h0ZM684.5,45.2h-3.6v-4.2h15.6v1.2h-14.4v1.8h2.4v1.2ZM407.3,45.2h-3.6v-1.2h2.4v-3h7.2v4.2h-3.6v-1.2h2.4v-1.8h-4.8v3ZM383.3,93.2h-4.2v-6.6h1.2v5.4h1.8v-3h4.2v3.6h-1.2v-2.4h-1.8v3ZM514.3,72.2h-3.6v-1.2h2.4v-6h4.2v6.6h-1.2v-5.4h-1.8v6ZM793.6,72.2h-3.6v-1.2h2.4v-6h4.2v6.6h-1.2v-5.4h-1.8v6h0ZM389.3,71.6h-1.2v-2.4h-3v-4.2h3v-5.4h1.2v6.6h-3v1.8h3v3.6ZM449.4,49.2h-3.6v-1.2h2.4v-1.8h-6v-3h-2.4v-1.2h3.6v3h6v4.2ZM482.4,61.2h-6.6v-1.2h5.4v-4.8h-1.8v2.4h-1.2v-3.6h4.2s0,7.2,0,7.2ZM407.3,63.2h-4.2v-3h-2.4v-1.2h3.6v3h1.8v-3h4.2v3.6h-1.2v-2.4h-1.8v3ZM436.8,49.2h-3.6v-4.2h7.2v3h2.4v1.2h-3.6v-3h-4.8v1.8h2.4v1.2ZM625.5,60.2h-3.6v-1.2h2.4v-4.8h-1.8v2.4h-1.2v-3.6h4.2v7.2h0ZM443.4,61.2h-3.6v-1.2h2.4v-1.8h-3v-4.2h3.6v1.2h-2.4v1.8h3v4.2ZM446.4,94.2h-4.2v-3.6h1.2v2.4h1.8v-3h4.2v3.6h-1.2v-2.4h-1.8v3ZM609.5,82.2h-3.6v-4.2h3v-1.8h-2.4v-1.2h3.6v4.2h-3v1.8h2.4v1.2ZM699.5,90.2h-3.6v-7.2h4.2v3.6h-1.2v-2.4h-1.8v4.8h2.4v1.2h0ZM730.8,55.2h-3.6v-1.2h2.4v-1.8h-3v-4.2h3.6v1.2h-2.4v1.8h3v4.2ZM583.1,60.6h-1.2v-6.6h4.2v6.6h-1.2v-5.4h-1.8v5.4ZM615.5,64.2h-15v-1.2h15v1.2ZM580.1,94.2h-3.6v-1.2h2.4v-1.8h-8.4v-1.2h9.6v4.2ZM646.5,69.2h-6.6v-1.2h5.4v-3h6.6v1.2h-5.4v3ZM413.3,39.2h-6.6v-1.2h5.4v-3h3v-2.4h1.2v3.6h-3v3ZM598.1,46.2h-7.2v-3.6h1.2v2.4h4.8v-1.8h-2.4v-1.2h3.6v4.2h0ZM609.5,49.2h-6.6v-3h-3v-3.6h1.2v2.4h3v3h5.4v1.2h0ZM431.4,46.2h-4.2v-3.6h1.2v2.4h1.8v-3h6.6v1.2h-5.4v3ZM757.8,64.2h-10.2v-3.6h1.2v2.4h7.8v-2.4h1.2v3.6ZM479.4,85.2h-3.6v-1.2h2.4v-1.8h-5.4v-1.2h6.6v4.2ZM386.3,81.2h-3.6v-1.2h2.4v-1.8h-3v-3.6h1.2v2.4h3s0,4.2,0,4.2ZM670.5,86.6h-1.2v-8.4h-2.4v-1.2h3.6v9.6h0ZM428.4,63.6h-1.2v-6.6h4.2v3.6h-1.2v-2.4h-1.8v5.4ZM445.8,67.2h-3.6v-3h-1.8v2.4h-1.2v-3.6h4.2v3h2.4s0,1.2,0,1.2ZM873,94.2h-9.6v-3.6h1.2v2.4h8.4v1.2h0ZM395.3,30.2h-4.2v-3.6h1.2v2.4h1.8v-3h3.6v1.2h-2.4v3ZM449.4,66.6h-1.2v-2.4h-3v-4.2h3.6v1.2h-2.4v1.8h3v3.6ZM631.5,62.6h-1.2v-5.4h-1.8v2.4h-1.2v-3.6h4.2v6.6ZM654.9,75.2h-3.6v-6h-2.4v-1.2h3.6v6h2.4v1.2ZM733.8,79.2h-3.6v-1.2h2.4v-1.8h-5.4v-1.2h6.6v4.2ZM879,70.2h-9.6v-3.6h1.2v2.4h8.4v1.2h0ZM574.1,61.2h-3.6v-1.2h2.4v-1.8h-3v-3.6h1.2v2.4h3v4.2h0ZM661.5,51.2h-3.6v-1.2h2.4v-3h6.6v1.2h-5.4v3ZM630.9,51.2h-9.6v-3.6h1.2v2.4h8.4v1.2h0ZM855,52.2h-3.6v-9.6h1.2v8.4h2.4v1.2h0ZM849.6,49.2h-6.6v-1.2h5.4v-1.8h-2.4v-1.2h3.6v4.2ZM520.3,51.2h-4.2v-6.6h1.2v5.4h1.8v-2.4h1.2v3.6ZM499.3,51.2h-4.2v-6.6h1.2v5.4h1.8v-2.4h1.2v3.6ZM799.6,51.2h-4.2v-6.6h1.2v5.4h1.8v-2.4h1.2v3.6ZM778.6,51.2h-4.2v-6.6h1.2v5.4h1.8v-2.4h1.2v3.6ZM452.4,79.2h-3.6v-1.2h2.4v-1.8h-2.4v-1.2h3.6v4.2ZM598.1,64.2h-3.6v-1.2h2.4v-1.8h-2.4v-1.2h3.6v4.2ZM700.1,24.2h-3.6v-1.2h2.4v-1.8h-2.4v-1.2h3.6v4.2ZM724.8,45.6h-1.2v-3.6h4.2v3.6h-1.2v-2.4h-1.8v2.4ZM721.8,51.6h-1.2v-3.6h4.2v3.6h-1.2v-2.4h-1.8v2.4ZM846.6,54.6h-1.2v-3.6h4.2v3.6h-1.2v-2.4h-1.8v2.4ZM873.6,66.6h-1.2v-3.6h4.2v3.6h-1.2v-2.4h-1.8v2.4ZM376.7,24.2h-9v-1.2h9v1.2ZM463.8,58.2h-3.6v-6.6h1.2v5.4h2.4v1.2ZM526.3,60.2h-3.6v-1.2h2.4v-1.8h-2.4v-1.2h3.6v4.2ZM667.5,59.6h-1.2v-3.6h3v-2.4h1.2v3.6h-3v2.4ZM699.5,81.2h-9v-1.2h9v1.2ZM763.8,81.6h-1.2v-6.6h3.6v1.2h-2.4v5.4h0ZM805.6,60.2h-3.6v-1.2h2.4v-1.8h-2.4v-1.2h3.6v4.2ZM888,58.2h-9v-1.2h9v1.2ZM852,82.2h-3.6v-4.2h3.6v1.2h-2.4v1.8h2.4v1.2ZM879,82.2h-3.6v-3h-2.4v-1.2h3.6v3h2.4v1.2ZM873.6,84.6h-1.2v-2.4h-3v-3.6h1.2v2.4h3v3.6ZM502.3,77.6h-1.2v-6.6h3.6v1.2h-2.4s0,5.4,0,5.4ZM634.5,83.6h-1.2v-5.4h-2.4v-1.2h3.6v6.6h0ZM682.1,59.6h-1.2v-3.6h6.6v1.2h-5.4v2.4h0ZM757.2,85.2h-6.6v-3.6h1.2v2.4h5.4v1.2h0ZM781.6,77.6h-1.2v-6.6h3.6v1.2h-2.4v5.4h0ZM852,73.2h-3.6v-4.2h3.6v1.2h-2.4v1.8h2.4v1.2ZM377.3,84.2h-4.2v-3.6h1.2v2.4h1.8v-2.4h1.2v3.6ZM498.7,78.2h-3.6v-4.2h3.6v1.2h-2.4v1.8h2.4v1.2ZM679.1,77.6h-1.2v-9h1.2v9ZM766.2,61.2h-6.6v-3.6h1.2v2.4h5.4v1.2h0ZM757.8,78.6h-1.2v-3.6h4.2v3.6h-1.2v-2.4h-1.8v2.4ZM778,78.2h-3.6v-4.2h3.6v1.2h-2.4v1.8h2.4v1.2ZM861.6,64.2h-4.2v-3.6h1.2v2.4h1.8v-2.4h1.2v3.6ZM567.5,61.2h-6.6v-3.6h1.2v2.4h5.4v1.2h0ZM398.3,42.2h-6.6v-1.2h5.4v-2.4h1.2v3.6ZM449.4,73.2h-4.2v-3.6h1.2v2.4h1.8v-2.4h1.2v3.6ZM613.1,81.6h-1.2v-3.6h4.2v3.6h-1.2v-2.4h-1.8v2.4ZM882,46.2h-6.6v-3.6h1.2v2.4h5.4v1.2h0ZM870.6,49.2h-6.6v-1.2h5.4v-2.4h1.2v3.6h0ZM616.1,76.2h-4.2v-3.6h1.2v2.4h1.8v-2.4h1.2v3.6ZM543.7,54.2h-6.6v-3.6h1.2v2.4h5.4v1.2h0ZM823,54.2h-6.6v-3.6h1.2v2.4h5.4v1.2h0ZM377.3,44.6h-1.2v-2.4h-2.4v-1.2h3.6v3.6ZM667.5,83.6h-1.2v-2.4h-2.4v-1.2h3.6v3.6h0ZM661.5,92.6h-1.2v-6h1.2v6ZM867.6,90.6h-1.2v-2.4h-2.4v-1.2h3.6v3.6h0ZM496.3,56.6h-1.2v-3.6h3.6v1.2h-2.4s0,2.4,0,2.4ZM718.8,60.6h-1.2v-3.6h3.6v1.2h-2.4v2.4h0ZM775.6,56.6h-1.2v-3.6h3.6v1.2h-2.4v2.4h0ZM846,79.2h-6v-1.2h6v1.2ZM849.6,91.2h-3.6v-1.2h2.4v-2.4h1.2v3.6h0ZM365.3,80.6h-1.2v-6h1.2v6ZM718.8,51.6h-1.2v-6h1.2v6ZM431.4,87.6h-1.2v-3.6h3.6v1.2h-2.4v2.4ZM633.9,54.2h-6v-1.2h6v1.2ZM409.7,36.2h-6v-1.2h6v1.2ZM470.4,72.6h-1.2v-6h1.2v6ZM592.1,60.6h-1.2v-6h1.2v6ZM685.1,54.2h-3.6v-1.2h2.4v-2.4h1.2v3.6h0ZM610.1,87.6h-1.2v-2.4h-2.4v-1.2h3.6v3.6h0ZM546.7,48.2h-3.6v-3.6h1.2v2.4h2.4v1.2h0ZM760.8,52.2h-3.6v-1.2h2.4v-2.4h1.2v3.6h0ZM826,48.2h-3.6v-3.6h1.2v2.4h2.4v1.2h0ZM745.2,64.2h-3v-1.2h3v1.2ZM415.7,24.2h-3v-1.2h3v1.2ZM654.9,57.2h-3v-1.2h3v1.2ZM663.9,60.2h-3v-1.2h3v1.2ZM861.6,57.6h-1.2v-3h1.2v3ZM882.6,75.6h-1.2v-3h1.2v3ZM374.3,29.6h-1.2v-3h1.2v3ZM371.3,92.6h-1.2v-3h1.2v3ZM437.4,75.6h-1.2v-3h1.2v3ZM457.8,79.2h-3v-1.2h3v1.2ZM434.4,90.6h-1.2v-3h1.2v3ZM540.7,81.2h-3v-1.2h3v1.2ZM688.1,77.6h-1.2v-3h1.2v3ZM687.5,81.2h-3v-1.2h3v1.2ZM820,81.2h-3v-1.2h3v1.2ZM846.6,69.6h-1.2v-3h1.2v3ZM852.6,93.6h-1.2v-3h1.2v3ZM365.3,35.6h-1.2v-3h1.2v3ZM431.4,72.6h-1.2v-3h1.2v3ZM657.9,93.2h-3v-1.2h3v1.2ZM679.1,47.6h-1.2v-3h1.2v3ZM699.5,93.2h-3v-1.2h3v1.2ZM748.2,91.2h-3v-1.2h3v1.2ZM730.2,94.2h-3v-1.2h3v1.2ZM392.3,71.6h-1.2v-3h1.2v3ZM443.4,72.6h-1.2v-3h1.2v3ZM511.3,68.6h-1.2v-3h1.2v3ZM511.3,92.6h-1.2v-3h1.2v3ZM589.1,57.6h-1.2v-3h1.2v3ZM577.1,72.6h-1.2v-3h1.2v3ZM700.1,47.6h-1.2v-3h1.2v3ZM700.1,71.6h-1.2v-3h1.2v3ZM712.2,64.2h-3v-1.2h3v1.2ZM766.2,67.2h-3v-1.2h3v1.2ZM730.2,73.2h-3v-1.2h3v1.2ZM790.6,68.6h-1.2v-3h1.2v3ZM790.6,92.6h-1.2v-3h1.2v3ZM855.6,66.6h-1.2v-3h1.2v3ZM888,67.2h-3v-1.2h3v1.2ZM888,76.2h-3v-1.2h3v1.2ZM412.7,33.2h-3v-1.2h3v1.2ZM385.7,48.2h-3v-1.2h3v1.2ZM448.8,43.2h-3v-1.2h3v1.2ZM473.4,48.6h-1.2v-3h1.2v3ZM485.4,93.6h-1.2v-3h1.2v3ZM507.7,51.2h-3v-1.2h3v1.2ZM633.9,33.2h-3v-1.2h3v1.2ZM660.9,54.2h-3v-1.2h3v1.2ZM763.8,57.6h-1.2v-3h1.2v3ZM754.8,69.6h-1.2v-3h1.2v3ZM754.8,75.6h-1.2v-3h1.2v3ZM748.8,87.6h-1.2v-3h1.2v3ZM787,51.2h-3v-1.2h3v1.2ZM861,49.2h-3v-1.2h3v1.2Z" vector-effect="non-scaling-stroke"/>
  </g>
  <g>
    <path class="cls-2" d="M72.6,94.2h-8.8v-8.2h-8.8v8.2h-26.2v-8.2h-8.8V28.2h8.8v-8.2h43.8v8.2h8.8v41.2h-8.8v8.2h8.8v16.5h-8.8ZM46.3,77.7h8.8v-8.2h-8.8v-8.2h17.5v-24.7h-26.3v41.2h8.8Z"/>
    <path class="cls-2" d="M133.9,94.2h-35.1v-8.2h-8.8V20h17.5v57.7h26.3V20h17.5v66h-8.8v8.2h-8.8.2Z"/>
    <path class="cls-2" d="M204.1,94.2h-43.8v-16.5h17.5v-41.2h-17.5v-16.5h52.6v16.5h-17.5v41.2h17.5v16.5h-8.8,0Z"/>
    <path class="cls-2" d="M265.4,94.2h-35.1v-8.2h-8.8V28.2h8.8v-8.2h43.8v8.2h8.8v16.5h-17.5v-8.2h-26.3v41.2h26.3v-8.2h17.5v16.5h-8.8v8.2h-8.8.1Z"/>
    <path class="cls-2" d="M344.3,94.2h-8.8v-8.2h-8.8v-8.2h-8.8v-8.2h-8.8v24.7h-17.5V20h17.5v24.7h8.8v-8.2h8.8v-8.2h8.8v-8.3h17.5v16.5h-8.8v8.2h-8.8v8.2h-8.8v8.2h8.8v8.2h8.8v8.2h8.8v16.5h-8.8v.2Z"/>
  </g>
</svg>